<svg width="127" height="68" viewBox="0 0 127 68" fill="none" xmlns="http://www.w3.org/2000/svg">
<path d="M69.015 48.173C69.015 56.343 68.1335 63.4381 66.3705 69.4581C64.6075 75.4781 62.178 80.466 59.082 84.422C55.986 88.335 52.3095 91.259 48.0525 93.194C43.8385 95.086 39.2805 96.032 34.3785 96.032C29.4765 96.032 24.9185 95.086 20.7045 93.194C16.4905 91.259 12.857 88.335 9.804 84.422C6.751 80.466 4.343 75.4781 2.58 69.4581C0.86 63.4381 0 56.343 0 48.173C0 40.003 0.86 32.9295 2.58 26.9525C4.343 20.9325 6.751 15.966 9.804 12.053C12.857 8.09705 16.4905 5.17305 20.7045 3.28105C24.9185 1.34604 29.4765 0.37854 34.3785 0.37854C39.2805 0.37854 43.8385 1.34604 48.0525 3.28105C52.3095 5.17305 55.986 8.09705 59.082 12.053C62.178 15.966 64.6075 20.9325 66.3705 26.9525C68.1335 32.9295 69.015 40.003 69.015 48.173ZM50.6325 48.173C50.6325 41.551 50.1595 36.09 49.2135 31.79C48.3105 27.49 47.1065 24.093 45.6015 21.599C44.0965 19.105 42.355 17.3635 40.377 16.3745C38.442 15.3855 36.4425 14.891 34.3785 14.891C32.3145 14.891 30.315 15.3855 28.38 16.3745C26.488 17.3635 24.7895 19.105 23.2845 21.599C21.8225 24.093 20.64 27.49 19.737 31.79C18.834 36.09 18.3825 41.551 18.3825 48.173C18.3825 54.838 18.834 60.3205 19.737 64.6205C20.64 68.9205 21.8225 72.3176 23.2845 74.8116C24.7895 77.3056 26.488 79.0471 28.38 80.0361C30.315 81.0251 32.3145 81.5195 34.3785 81.5195C36.4425 81.5195 38.442 81.0251 40.377 80.0361C42.355 79.0471 44.0965 77.3056 45.6015 74.8116C47.1065 72.3176 48.3105 68.9205 49.2135 64.6205C50.1595 60.3205 50.6325 54.838 50.6325 48.173Z" fill="white" fill-opacity="0.5"/>
<path d="M139.137 81.9066V95H86.6336V81.9066H105.21V30.6935C105.21 29.5755 105.231 28.436 105.274 27.275C105.317 26.114 105.382 24.9315 105.468 23.7275L93.2126 33.9185C92.3526 34.5635 91.5141 34.972 90.6971 35.144C89.8801 35.316 89.1061 35.3375 88.3751 35.2085C87.6441 35.0365 86.9991 34.7785 86.4401 34.4345C85.8811 34.0475 85.4511 33.6605 85.1501 33.2735L79.5386 25.7271L108.306 1.34605H122.947V81.9066H139.137Z" fill="white" fill-opacity="0.5"/>
</svg>
