<svg width="137" height="68" viewBox="0 0 137 68" fill="none" xmlns="http://www.w3.org/2000/svg">
<path d="M69.015 48.173C69.015 56.343 68.1335 63.4381 66.3705 69.4581C64.6075 75.4781 62.178 80.466 59.082 84.422C55.986 88.335 52.3095 91.259 48.0525 93.194C43.8385 95.086 39.2805 96.032 34.3785 96.032C29.4765 96.032 24.9185 95.086 20.7045 93.194C16.4905 91.259 12.857 88.335 9.804 84.422C6.751 80.466 4.343 75.4781 2.58 69.4581C0.86 63.4381 0 56.343 0 48.173C0 40.003 0.86 32.9295 2.58 26.9525C4.343 20.9325 6.751 15.966 9.804 12.053C12.857 8.09705 16.4905 5.17305 20.7045 3.28105C24.9185 1.34604 29.4765 0.37854 34.3785 0.37854C39.2805 0.37854 43.8385 1.34604 48.0525 3.28105C52.3095 5.17305 55.986 8.09705 59.082 12.053C62.178 15.966 64.6075 20.9325 66.3705 26.9525C68.1335 32.9295 69.015 40.003 69.015 48.173ZM50.6325 48.173C50.6325 41.551 50.1595 36.09 49.2135 31.79C48.3105 27.49 47.1065 24.093 45.6015 21.599C44.0965 19.105 42.355 17.3635 40.377 16.3745C38.442 15.3855 36.4425 14.891 34.3785 14.891C32.3145 14.891 30.315 15.3855 28.38 16.3745C26.488 17.3635 24.7895 19.105 23.2845 21.599C21.8225 24.093 20.64 27.49 19.737 31.79C18.834 36.09 18.3825 41.551 18.3825 48.173C18.3825 54.838 18.834 60.3205 19.737 64.6205C20.64 68.9205 21.8225 72.3176 23.2845 74.8116C24.7895 77.3056 26.488 79.0471 28.38 80.0361C30.315 81.0251 32.3145 81.5195 34.3785 81.5195C36.4425 81.5195 38.442 81.0251 40.377 80.0361C42.355 79.0471 44.0965 77.3056 45.6015 74.8116C47.1065 72.3176 48.3105 68.9205 49.2135 64.6205C50.1595 60.3205 50.6325 54.838 50.6325 48.173Z" fill="white" fill-opacity="0.5"/>
<path d="M135.073 78.6815C137.008 78.6815 138.513 79.2191 139.588 80.2941C140.706 81.369 141.265 82.7881 141.265 84.5511V95H76.3781V89.1951C76.3781 88.0771 76.6146 86.8731 77.0876 85.5831C77.5606 84.2501 78.3561 83.0461 79.4741 81.9711L107.209 54.1716C109.574 51.8065 111.66 49.549 113.466 47.399C115.272 45.206 116.777 43.0775 117.981 41.0135C119.185 38.9065 120.088 36.778 120.69 34.628C121.292 32.478 121.593 30.2205 121.593 27.8555C121.593 23.6845 120.518 20.524 118.368 18.374C116.218 16.181 113.186 15.0845 109.273 15.0845C107.553 15.0845 105.962 15.3425 104.5 15.8585C103.081 16.3315 101.791 16.998 100.63 17.858C99.5121 18.718 98.5446 19.7285 97.7276 20.8895C96.9106 22.0505 96.3086 23.319 95.9216 24.695C95.1476 26.845 94.0941 28.2855 92.7611 29.0165C91.4711 29.7045 89.6221 29.855 87.2141 29.468L77.7971 27.791C78.4851 23.233 79.7751 19.2341 81.6671 15.794C83.5591 12.354 85.9241 9.49454 88.7621 7.21555C91.6001 4.93655 94.8466 3.23805 98.5016 2.12004C102.157 0.959042 106.091 0.37854 110.305 0.37854C114.734 0.37854 118.755 1.04504 122.367 2.37804C126.022 3.66805 129.139 5.49555 131.719 7.86055C134.299 10.1825 136.299 12.999 137.718 16.31C139.137 19.621 139.846 23.276 139.846 27.275C139.846 30.715 139.352 33.897 138.363 36.821C137.374 39.745 136.019 42.5401 134.299 45.2061C132.622 47.8291 130.666 50.3875 128.43 52.8815C126.194 55.3755 123.829 57.8911 121.335 60.4281L101.469 80.7455C103.662 80.1005 105.833 79.6061 107.983 79.2621C110.133 78.8751 112.154 78.6815 114.046 78.6815H135.073Z" fill="white" fill-opacity="0.5"/>
</svg>
