<svg width="131" height="68" viewBox="0 0 131 68" fill="none" xmlns="http://www.w3.org/2000/svg">
<path d="M69.015 48.173C69.015 56.343 68.1335 63.4381 66.3705 69.4581C64.6075 75.4781 62.178 80.466 59.082 84.422C55.986 88.335 52.3095 91.259 48.0525 93.194C43.8385 95.086 39.2805 96.032 34.3785 96.032C29.4765 96.032 24.9185 95.086 20.7045 93.194C16.4905 91.259 12.857 88.335 9.804 84.422C6.751 80.466 4.343 75.4781 2.58 69.4581C0.86 63.4381 0 56.343 0 48.173C0 40.003 0.86 32.9295 2.58 26.9525C4.343 20.9325 6.751 15.966 9.804 12.053C12.857 8.09705 16.4905 5.17305 20.7045 3.28105C24.9185 1.34604 29.4765 0.37854 34.3785 0.37854C39.2805 0.37854 43.8385 1.34604 48.0525 3.28105C52.3095 5.17305 55.986 8.09705 59.082 12.053C62.178 15.966 64.6075 20.9325 66.3705 26.9525C68.1335 32.9295 69.015 40.003 69.015 48.173ZM50.6325 48.173C50.6325 41.551 50.1595 36.09 49.2135 31.79C48.3105 27.49 47.1065 24.093 45.6015 21.599C44.0965 19.105 42.355 17.3635 40.377 16.3745C38.442 15.3855 36.4425 14.891 34.3785 14.891C32.3145 14.891 30.315 15.3855 28.38 16.3745C26.488 17.3635 24.7895 19.105 23.2845 21.599C21.8225 24.093 20.64 27.49 19.737 31.79C18.834 36.09 18.3825 41.551 18.3825 48.173C18.3825 54.838 18.834 60.3205 19.737 64.6205C20.64 68.9205 21.8225 72.3176 23.2845 74.8116C24.7895 77.3056 26.488 79.0471 28.38 80.0361C30.315 81.0251 32.3145 81.5195 34.3785 81.5195C36.4425 81.5195 38.442 81.0251 40.377 80.0361C42.355 79.0471 44.0965 77.3056 45.6015 74.8116C47.1065 72.3176 48.3105 68.9205 49.2135 64.6205C50.1595 60.3205 50.6325 54.838 50.6325 48.173Z" fill="white" fill-opacity="0.5"/>
<path d="M78.3131 27.791C79.0011 23.233 80.2911 19.2341 82.1831 15.794C84.0751 12.354 86.4401 9.49454 89.2781 7.21555C92.1161 4.93655 95.3411 3.23805 98.9531 2.12004C102.608 0.959042 106.543 0.37854 110.757 0.37854C115.229 0.37854 119.228 1.02355 122.754 2.31355C126.323 3.56055 129.333 5.28054 131.784 7.47354C134.235 9.66654 136.105 12.225 137.395 15.149C138.728 18.073 139.395 21.212 139.395 24.566C139.395 27.533 139.072 30.156 138.427 32.435C137.825 34.671 136.901 36.6275 135.654 38.3045C134.45 39.9815 132.945 41.4006 131.139 42.5616C129.376 43.7225 127.333 44.69 125.011 45.464C135.761 48.99 141.136 56.1496 141.136 66.9426C141.136 71.7156 140.255 75.9296 138.492 79.5845C136.729 83.1965 134.364 86.2281 131.397 88.679C128.43 91.1301 124.968 92.979 121.012 94.226C117.099 95.43 112.993 96.032 108.693 96.032C104.135 96.032 100.114 95.5161 96.6311 94.4841C93.1481 93.4521 90.0736 91.904 87.4076 89.84C84.7846 87.776 82.5271 85.1961 80.6351 82.1001C78.7431 78.9611 77.0876 75.3061 75.6686 71.1351L83.5376 67.91C85.6016 67.05 87.5151 66.8135 89.2781 67.2005C91.0841 67.5875 92.3741 68.5335 93.1481 70.0385C94.0081 71.6725 94.9111 73.1775 95.8571 74.5535C96.8461 75.9295 97.9426 77.1335 99.1466 78.1655C100.351 79.1545 101.705 79.9286 103.21 80.4875C104.758 81.0465 106.521 81.326 108.499 81.326C110.993 81.326 113.165 80.9176 115.014 80.1006C116.863 79.2836 118.411 78.23 119.658 76.94C120.905 75.607 121.829 74.1236 122.431 72.4895C123.076 70.8125 123.399 69.157 123.399 67.523C123.399 65.373 123.205 63.438 122.818 61.718C122.431 59.955 121.528 58.4715 120.109 57.2675C118.733 56.0205 116.669 55.0745 113.917 54.4295C111.208 53.7415 107.51 53.3975 102.823 53.3975V40.8845C106.736 40.8845 109.94 40.562 112.434 39.917C114.928 39.272 116.884 38.369 118.303 37.208C119.722 36.0471 120.69 34.6495 121.206 33.0155C121.765 31.3815 122.044 29.597 122.044 27.662C122.044 23.577 120.969 20.4595 118.819 18.3095C116.712 16.1595 113.702 15.0845 109.789 15.0845C108.069 15.0845 106.478 15.3425 105.016 15.8585C103.597 16.3315 102.307 16.998 101.146 17.858C100.028 18.718 99.0606 19.7285 98.2436 20.8895C97.4266 22.0505 96.8246 23.319 96.4376 24.695C95.6206 26.845 94.5671 28.2855 93.2771 29.0165C91.9871 29.7045 90.1166 29.855 87.6656 29.468L78.3131 27.791Z" fill="white" fill-opacity="0.5"/>
</svg>
