<svg width="24" height="25" viewBox="0 0 24 25" fill="none" xmlns="http://www.w3.org/2000/svg">
<g clip-path="url(#clip0)">
<path d="M16.1715 3.97613C15.8331 3.62368 15.3005 3.62368 14.9621 3.97613C14.6352 4.31667 14.6352 4.88344 14.9621 5.22319L21.0943 11.6109H0.858867C0.387158 11.6109 3.76734e-05 12.0015 3.76734e-05 12.4928C3.76734e-05 12.9842 0.387158 13.3874 0.858867 13.3874H21.0943L14.9621 19.7633C14.6352 20.1157 14.6352 20.6833 14.9621 21.023C15.3005 21.3755 15.8331 21.3755 16.1715 21.023L23.7554 13.1231C24.0823 12.7826 24.0823 12.2158 23.7554 11.876L16.1715 3.97613Z" fill="#FCD3AC"/>
</g>
<defs>
<clipPath id="clip0">
<rect width="24" height="25" fill="white" transform="matrix(-1 0 0 1 24 0)"/>
</clipPath>
</defs>
</svg>
