<svg width="51" height="48" viewBox="0 0 51 48" fill="none" xmlns="http://www.w3.org/2000/svg">
<rect width="51" height="48" fill="#032F48"/>
<path d="M21.6111 27H20.5V17.2778C20.5 17.1242 20.3755 17 20.2222 17C20.0689 17 19.9444 17.1242 19.9444 17.2778V27H18.8333C18.68 27 18.5555 27.1242 18.5555 27.2778V30.6111C18.5555 30.7647 18.68 30.8889 18.8333 30.8889H19.9444V31.7222C19.9444 31.8758 20.0689 32 20.2222 32C20.3755 32 20.5 31.8758 20.5 31.7222V30.8889H21.6111C21.7644 30.8889 21.8889 30.7647 21.8889 30.6111V27.2778C21.8889 27.1242 21.7644 27 21.6111 27ZM21.3333 30.3333H19.1111V27.5556H21.3333V30.3333Z" fill="#F7F7F7"/>
<path d="M26.8889 22.5556H25.7778V17.2778C25.7778 17.1242 25.6534 17 25.5 17C25.3467 17 25.2223 17.1242 25.2223 17.2778V22.5556H24.1112C23.9578 22.5556 23.8334 22.6797 23.8334 22.8333V26.1667C23.8334 26.3203 23.9578 26.4444 24.1112 26.4444H25.2223V31.7222C25.2223 31.8758 25.3467 32 25.5 32C25.6534 32 25.7778 31.8758 25.7778 31.7222V26.4444H26.8889C27.0423 26.4444 27.1667 26.3203 27.1667 26.1667V22.8333C27.1667 22.6797 27.0423 22.5556 26.8889 22.5556ZM26.6112 25.8889H24.3889V23.1111H26.6112V25.8889Z" fill="#F7F7F7"/>
<path d="M32.1666 18.1111H31.0555V17.2778C31.0555 17.1242 30.9311 17 30.7778 17C30.6244 17 30.5 17.1242 30.5 17.2778V18.1111H29.3889C29.2355 18.1111 29.1111 18.2353 29.1111 18.3889V21.7222C29.1111 21.8758 29.2355 22 29.3889 22H30.5V31.7222C30.5 31.8758 30.6244 32 30.7778 32C30.9311 32 31.0555 31.8758 31.0555 31.7222V22H32.1666C32.32 22 32.4444 21.8758 32.4444 21.7222V18.3889C32.4444 18.2353 32.32 18.1111 32.1666 18.1111ZM31.8889 21.4444H29.6666V18.6667H31.8889V21.4444Z" fill="#F7F7F7"/>
</svg>
